<svg xmlns="http://www.w3.org/2000/svg" width="23" height="12" fill="none"><path fill="#006933" d="M8.701 6a.3.3 0 00-.416.081l-.806 1.194a.3.3 0 00.081.416l1.493 1.007a.3.3 0 00.416-.081l.805-1.194a.3.3 0 00-.08-.416zm9.145 3.606h1.253v-7.2h-1.823c-1.834 0-2.797.943-2.797 2.33 0 1.11.528 1.762 1.47 2.435l-1.636 2.435h1.357l1.823-2.725-.632-.424c-.766-.518-1.14-.922-1.14-1.793 0-.766.54-1.284 1.565-1.284h.56z"/><path fill="#006933" fill-rule="evenodd" d="M3.597.739A1.675 1.675 0 015.922.287l5.436 3.666A6.002 6.002 0 0123 6a6 6 0 01-11.228 2.946l-1.562 2.315a1.675 1.675 0 01-2.325.452L1.239 7.23a1.675 1.675 0 01-.452-2.325zm1.766.377l6.646 4.483c.31.208.391.628.183.937l-2.81 4.166a.675.675 0 01-.938.182L1.798 6.401a.675.675 0 01-.182-.937l2.81-4.166a.675.675 0 01.937-.182m7.05 6.879A5.001 5.001 0 0022 6a5 5 0 00-9.781-1.467l.35.237c.767.517.969 1.558.452 2.325z" clip-rule="evenodd"/></svg>